Coordinates
version=1
nRows=8
nColumns=36
inDegrees=yes

Units are S.I. units (second, meters, Newtons, ...)
If the header above contains a line with 'inDegrees', this indicates whether rotational values are in degrees (yes) or radians (no).

endheader
time	pelvis_tilt	pelvis_list	pelvis_rotation	pelvis_tx	pelvis_ty	pelvis_tz	hip_flexion_r	hip_adduction_r	hip_rotation_r	knee_angle_r	knee_angle_r_beta	ankle_angle_r	subtalar_angle_r	mtp_angle_r	hip_flexion_l	hip_adduction_l	hip_rotation_l	knee_angle_l	knee_angle_l_beta	ankle_angle_l	subtalar_angle_l	mtp_angle_l	lumbar_extension	lumbar_bending	lumbar_rotation	arm_flex_r	arm_add_r	arm_rot_r	elbow_flex_r	pro_sup_r	arm_flex_l	arm_add_l	arm_rot_l	elbow_flex_l	pro_sup_l
     29.76666670	      7.45770832	      4.53807450	    176.82443844	      0.48463046	      0.84144427	      0.73160886	      6.01759201	      4.54198902	     -2.53959287	     27.42703884	      0.47869213	     16.00447840	     -5.28114826	     -7.49999987	     35.87944941	     -6.76508330	      1.26301267	      9.51129166	      0.16600336	    -12.14286820	     -3.36449039	     -7.49999987	     -8.01518471	      3.83921384	     10.58803325	     15.95976202	    -21.70668499	      0.48517044	     26.17758113	     83.19283197	      8.37427107	     -6.31868298	    -19.27005829	      8.32840892	     93.40206519
     29.78333330	      7.43364797	      4.17839840	    177.03660839	      0.48434592	      0.84020562	      0.73242674	      5.74240842	      3.99463413	     -2.50499360	     30.15808428	      0.52635787	     17.39005749	     -6.10088557	     -7.49999987	     35.71793848	     -6.19966892	      1.16553253	      9.70501470	      0.16938446	    -10.30884092	     -3.77559094	     -7.49999987	     -8.01446170	      3.08205206	     10.39042022	     16.13295782	    -21.79068954	      0.40504748	     26.47884566	     83.15378997	      7.68275123	     -6.76586762	    -19.40885509	      8.05736422	     93.50040814
     29.80000000	      7.90645574	      3.91571743	    176.85855472	      0.48087635	      0.83655217	      0.73473370	      6.49545424	      3.48985505	     -2.40533223	     33.68997669	      0.58800102	     19.00843830	     -6.16861506	     -7.49999987	     35.78698062	     -5.88528156	      0.09043176	     10.03466488	      0.17513794	     -9.70047696	     -3.52719163	     -7.49999987	     -7.16962895	      2.58602846	     10.14608238	     16.07345219	    -21.65792622	      0.00778828	     26.96188751	     82.93354360	      6.38482942	     -7.26562570	    -20.38886965	      7.73476232	     93.79204082
     29.81666670	      7.81131249	      3.68220929	    176.84612337	      0.47339743	      0.83204040	      0.74004135	      6.46128071	      2.83879579	     -2.33608901	     37.07606870	      0.64709947	     19.48121990	     -6.70558708	     -7.49999987	     34.86161693	     -5.26411250	     -0.52553754	     10.28586151	      0.17952215	    -10.56708875	     -4.57184037	     -7.49999987	     -6.60353892	      2.25329441	      9.86908801	     16.00838417	    -21.23619618	     -1.07672160	     26.72079494	     82.33960221	      5.26867536	     -7.50091983	    -23.39165786	      7.16589390	     94.69388460
     29.83333330	      7.39305644	      3.25059530	    176.99597689	      0.46347237	      0.82725550	      0.74755950	      5.80997334	      1.64274285	     -2.47418072	     40.23770801	      0.70228049	     18.95197345	     -6.81411704	     -7.49999987	     33.29247678	     -4.14455457	     -1.02737338	     10.52170403	      0.18363838	    -12.19795054	     -6.55101524	     -7.49999987	     -5.91835589	      1.91867800	      9.46942644	     15.75934311	    -20.91158080	     -1.41457377	     25.79675494	     82.20382479	      4.15634233	     -7.80836495	    -23.89271738	      6.29552898	     95.06382639
     29.85000000	      6.77171108	      2.65029866	    177.21555626	      0.45445034	      0.82397853	      0.75467928	      4.82483462	     -0.00096097	     -2.73278995	     43.18317142	      0.75368852	     17.16502259	     -6.96956381	     -7.49999987	     31.36133315	     -2.75117461	     -1.86294136	     10.79111151	      0.18834043	    -13.48919308	     -7.73679610	     -7.49999987	     -5.14899505	      1.46345433	      9.07102539	     14.97404710	    -20.60057281	     -1.60483633	     25.06689109	     82.10282329	      3.01142163	     -8.03621240	    -24.04805193	      5.80850155	     95.08137276
     29.86666670	      5.61659885	      1.95800180	    177.33279804	      0.44972040	      0.82347382	      0.75972816	      3.67658865	     -1.90724757	     -2.97643609	     46.49131759	      0.81142657	     14.78896786	     -7.17182251	     -7.49999987	     28.72221733	     -1.20852514	     -1.98719806	     10.89104126	      0.19008453	    -15.61245832	    -10.54482334	     -7.49999987	     -4.81726554	      0.95565020	      8.55913288	     15.00799499	    -19.93752898	     -2.62889565	     22.45529307	     81.84311579	      2.25025369	     -8.20857534	    -24.31773356	      4.94664526	     95.63674660
     29.88333330	      4.78361033	      1.22015693	    177.27870275	      0.45008040	      0.82426032	      0.76252489	      4.07677238	     -3.78590687	     -3.02596633	     51.30607333	      0.89545991	     11.86297769	     -7.86480997	     -7.49999987	     26.76268951	      0.12289535	     -2.48448619	     11.58610620	      0.20221570	    -16.38239538	    -11.76826433	     -7.49999987	     -4.49281284	      0.22208932	      8.20144389	     14.48143782	    -19.42626897	     -3.19260087	     21.16085112	     81.71962736	      1.55649751	     -8.41240047	    -24.22650642	      4.82252994	     96.10064917
